<?xml version="1.0" encoding="UTF-8" standalone="no"?>
<!-- Created with Inkscape (http://www.inkscape.org/) -->

<svg
   xmlns:dc="http://purl.org/dc/elements/1.1/"
   xmlns:cc="http://creativecommons.org/ns#"
   xmlns:rdf="http://www.w3.org/1999/02/22-rdf-syntax-ns#"
   xmlns:svg="http://www.w3.org/2000/svg"
   xmlns="http://www.w3.org/2000/svg"
   xmlns:sodipodi="http://sodipodi.sourceforge.net/DTD/sodipodi-0.dtd"
   xmlns:inkscape="http://www.inkscape.org/namespaces/inkscape"
   version="1.1"
   id="svg2"
   xml:space="preserve"
   width="980.74579"
   height="482.9827"
   viewBox="0 0 980.74579 482.9827"
   sodipodi:docname="front.svg"
   inkscape:version="0.92.4 (f8dce91, 2019-08-02)"><metadata
     id="metadata8"><rdf:RDF><cc:Work
         rdf:about=""><dc:format>image/svg+xml</dc:format><dc:type
           rdf:resource="http://purl.org/dc/dcmitype/StillImage" /><dc:title /></cc:Work></rdf:RDF></metadata><defs
     id="defs6"><clipPath
       clipPathUnits="userSpaceOnUse"
       id="clipPath18"><path
         d="M 0,0.028 H 719.971 V 539.999 H 0 Z"
         id="path16"
         inkscape:connector-curvature="0"
         style="clip-rule:evenodd" /></clipPath><clipPath
       clipPathUnits="userSpaceOnUse"
       id="clipPath30"><path
         d="M 0,0.056 H 719.971 V 539.999 H 0 Z"
         id="path28"
         inkscape:connector-curvature="0"
         style="clip-rule:evenodd" /></clipPath><clipPath
       clipPathUnits="userSpaceOnUse"
       id="clipPath62"><path
         d="M 0,0.028 H 719.971 V 539.999 H 0 Z"
         id="path60"
         inkscape:connector-curvature="0"
         style="clip-rule:evenodd" /></clipPath><clipPath
       id="clipPath936"
       clipPathUnits="userSpaceOnUse"><path
         style="clip-rule:evenodd"
         inkscape:connector-curvature="0"
         id="path934"
         d="M 0,0.028 H 719.971 V 539.999 H 0 Z" /></clipPath><clipPath
       id="clipPath948"
       clipPathUnits="userSpaceOnUse"><path
         style="clip-rule:evenodd"
         inkscape:connector-curvature="0"
         id="path946"
         d="M 0,0.056 H 719.971 V 539.999 H 0 Z" /></clipPath><clipPath
       id="clipPath980"
       clipPathUnits="userSpaceOnUse"><path
         style="clip-rule:evenodd"
         inkscape:connector-curvature="0"
         id="path978"
         d="M 0,0.028 H 719.971 V 539.999 H 0 Z" /></clipPath><clipPath
       clipPathUnits="userSpaceOnUse"
       id="clipPath1097"><rect
         style="fill:#e9e9e9;fill-opacity:1;stroke:none;stroke-width:2.04258132;stroke-miterlimit:4;stroke-dasharray:none;stroke-opacity:1"
         id="rect1099"
         width="298.51294"
         height="40.448906"
         x="40.381569"
         y="-403.68008" /></clipPath><clipPath
       id="clip1"><path
         id="path1101"
         d="M 0.910156,0 H 338.41797 V 49.222656 H 0.910156 Z m 0,0"
         inkscape:connector-curvature="0" /></clipPath><clipPath
       clipPathUnits="userSpaceOnUse"
       id="clipPath1317"><rect
         style="fill:#e9e9e9;fill-opacity:1;stroke:none;stroke-width:2.84881902;stroke-miterlimit:4;stroke-dasharray:none;stroke-opacity:1"
         id="rect1319"
         width="234.53389"
         height="38.326275"
         x="24.365492"
         y="5.7361679" /></clipPath><clipPath
       id="clip1-7"><path
         id="path1101-5"
         d="M 0.910156,0 H 338.41797 V 49.222656 H 0.910156 Z m 0,0"
         inkscape:connector-curvature="0" /></clipPath></defs><sodipodi:namedview
     pagecolor="#ffffff"
     bordercolor="#666666"
     borderopacity="1"
     objecttolerance="10"
     gridtolerance="10"
     guidetolerance="10"
     inkscape:pageopacity="0"
     inkscape:pageshadow="2"
     inkscape:window-width="1866"
     inkscape:window-height="1016"
     id="namedview4"
     showgrid="false"
     showguides="true"
     inkscape:guide-bbox="true"
     inkscape:zoom="0.92709558"
     inkscape:cx="417.88996"
     inkscape:cy="156.65941"
     inkscape:window-x="54"
     inkscape:window-y="27"
     inkscape:window-maximized="1"
     inkscape:current-layer="g10" /><g
     id="g10"
     inkscape:groupmode="layer"
     inkscape:label="Formatvorlage_englisch"
     transform="matrix(1.3333333,0,0,-1.3333333,0,482.98268)">



<rect
   style="fill:#e9e9e9;fill-opacity:1;stroke:none;stroke-width:3.14286661;stroke-miterlimit:4;stroke-dasharray:none;stroke-opacity:1"
   id="rect1044"
   width="655.49121"
   height="81.755135"
   x="80.068161"
   y="-207.52696"
   transform="scale(1,-1)" /><rect
   style="fill:#e4003a;fill-opacity:1;stroke:none;stroke-width:2.65728951;stroke-miterlimit:4;stroke-dasharray:none;stroke-opacity:1"
   id="rect918"
   width="699.48004"
   height="109.5878"
   x="15.940675"
   y="-302.87357"
   transform="scale(1,-1)" /><g
   transform="translate(15.659185,-59.583042)"
   id="g969"
   style="fill:#8f8f8f;fill-opacity:1"><text
   id="text967"
   style="font-variant:normal;font-weight:normal;font-size:18px;font-family:Carlito;-inkscape-font-specification:Carlito;writing-mode:lr-tb;fill:#8f8f8f;fill-opacity:1;fill-rule:nonzero;stroke:none"
   transform="matrix(1,0,0,-1,78.491,228.898)"><tspan
     id="tspan965"
     sodipodi:role="line"
     y="0"
     x="0">Yannik Schälte</tspan></text>




</g><g
   transform="translate(15.659185,-59.583042)"
   id="g975"
   style="fill:#8f8f8f;fill-opacity:1"><text
   id="text973"
   style="font-variant:normal;font-weight:normal;font-size:18px;font-family:Carlito;-inkscape-font-specification:Carlito;writing-mode:lr-tb;fill:#8f8f8f;fill-opacity:1;fill-rule:nonzero;stroke:none"
   transform="matrix(1,0,0,-1,78.491,207.298)"><tspan
     id="tspan971"
     sodipodi:role="line"
     y="0"
     x="0">FitMultiCell VC meeting, 2020-03-10</tspan></text>




</g><g
   transform="translate(15.659185,-53.583042)"
   id="g981"><text
   id="text979"
   style="font-variant:normal;font-weight:normal;font-size:28.00600052px;font-family:Carlito;-inkscape-font-specification:Carlito;writing-mode:lr-tb;fill:#ffffff;fill-opacity:1;fill-rule:nonzero;stroke:none"
   transform="matrix(1,0,0,-1,79.398,268.809)"><tspan
     id="tspan977"
     sodipodi:role="line"
     y="0"
     x="0">Exact ABC</tspan></text>




</g><g
   style="clip-rule:nonzero;opacity:0"
   clip-path="url(#clip1-7)"
   id="g1108"
   transform="matrix(1.3091437,0,0,-1.3091437,-1.191525,362.24213)"><path
     inkscape:connector-curvature="0"
     style="fill:#ffffff;fill-opacity:1;fill-rule:nonzero;stroke:none"
     d="M 0.910156,49.222656 H 338.41406 V 0.00390625 H 0.910156 V 49.222656"
     id="path1106" /></g><path
   inkscape:connector-curvature="0"
   style="fill:#eb1142;fill-opacity:1;fill-rule:nonzero;stroke:none;stroke-width:1.30914366"
   d="m 137.097,331.69715 v 0.80799 c 0,0.25057 -0.20966,0.46024 -0.46024,0.46024 h -5.93206 c -0.46024,0 -0.92048,-0.092 -1.19664,-0.13807 0.27616,0.20455 0.59832,0.55741 0.85401,1.01254 l 6.22866,10.79532 c 0.13808,0.23012 0.25058,0.50116 0.25058,0.76196 v 0.82845 c 0,0.27614 -0.20455,0.46024 -0.46536,0.46024 h -7.78838 c -0.27615,0 -0.50627,-0.1841 -0.50627,-0.46024 v -0.76197 c 0,-0.25569 0.23012,-0.46024 0.50627,-0.46024 h 5.30305 c 0.52673,0 0.9921,0.046 1.33473,0.13296 -0.27616,-0.22501 -0.6239,-0.57275 -0.84891,-0.96141 l -6.29514,-10.88737 c -0.0921,-0.16364 -0.20967,-0.39376 -0.20967,-0.64434 v -0.94606 c 0,-0.25569 0.20967,-0.46025 0.46025,-0.46025 h 8.30488 c 0.25058,0 0.46024,0.20456 0.46024,0.46025"
   id="path1110" /><path
   inkscape:connector-curvature="0"
   style="fill:#eb1142;fill-opacity:1;fill-rule:nonzero;stroke:none;stroke-width:1.30914366"
   d="m 145.29961,337.82864 h -4.44904 c 0.27103,2.71034 1.53926,3.1399 2.30122,3.1399 1.52394,0 2.10179,-1.61597 2.14782,-3.1399 m 1.89212,-1.00231 c 0,4.33143 -1.9586,5.63546 -4.08596,5.63546 -2.46488,0 -4.17289,-2.13248 -4.17289,-5.58943 0,-3.74845 1.72847,-5.75308 4.91439,-5.75308 1.31427,0 2.05066,0.23013 2.66944,0.50627 0.28126,0.11762 0.39376,0.34775 0.30682,0.59832 l -0.20967,0.57787 c -0.0971,0.23012 -0.28126,0.39376 -0.60342,0.2966 -0.68526,-0.20455 -1.31426,-0.3682 -2.18873,-0.3682 -2.07623,0 -2.8791,1.27335 -2.97114,3.60015 h 5.88092 c 0.25057,0 0.46024,0.23524 0.46024,0.49604"
   id="path1112" /><path
   inkscape:connector-curvature="0"
   style="fill:#eb1142;fill-opacity:1;fill-rule:nonzero;stroke:none;stroke-width:1.30914366"
   d="m 158.33991,331.69715 v 7.88554 c 0,1.72848 -1.09948,2.88421 -2.83307,2.88421 -1.19664,0 -2.18872,-0.46536 -3.1757,-1.61086 l -0.25569,1.12505 c -0.0716,0.27614 -0.20967,0.36819 -0.53184,0.36819 h -0.50627 c -0.25569,0 -0.48581,-0.1841 -0.48581,-0.46024 v -10.19189 c 0,-0.25569 0.23012,-0.46025 0.48581,-0.46025 h 0.87447 c 0.25569,0 0.48581,0.20456 0.48581,0.46025 v 6.34116 c 0,1.59041 1.17619,2.86376 2.66943,2.86376 1.01765,0 1.43188,-0.51139 1.43188,-1.7336 v -7.47132 c 0,-0.25569 0.23012,-0.46025 0.48581,-0.46025 h 0.87957 c 0.25059,0 0.4756,0.20456 0.4756,0.46025"
   id="path1114" /><path
   inkscape:connector-curvature="0"
   style="fill:#eb1142;fill-opacity:1;fill-rule:nonzero;stroke:none;stroke-width:1.30914366"
   d="m 166.59876,331.88125 -0.092,0.48581 c -0.0461,0.25058 -0.26081,0.41422 -0.48582,0.36308 -0.23012,-0.0409 -0.53184,-0.0869 -0.71593,-0.0869 -0.57787,0 -0.82844,0.27615 -0.82844,0.89493 v 7.3179 h 1.28868 c 0.25569,0 0.46024,0.23013 0.46024,0.48582 v 0.5165 c 0,0.25569 -0.20455,0.49093 -0.46024,0.49093 h -1.28868 v 2.8842 c 0,0.36309 -0.32218,0.34263 -0.60344,0.25058 l -0.8489,-0.30171 c -0.20967,-0.0716 -0.34773,-0.25058 -0.34773,-0.50627 v -2.3268 h -1.26824 c -0.27615,0 -0.46536,-0.23524 -0.46536,-0.49093 v -0.5165 c 0,-0.25569 0.18921,-0.48582 0.46536,-0.48582 h 1.26824 v -7.54803 c 0,-1.47278 0.73639,-2.18872 2.30633,-2.18872 0.48582,0 0.94606,0.0716 1.26312,0.16364 0.32729,0.092 0.39887,0.32217 0.35286,0.59832"
   id="path1116" /><path
   inkscape:connector-curvature="0"
   style="fill:#eb1142;fill-opacity:1;fill-rule:nonzero;stroke:none;stroke-width:1.30914366"
   d="m 174.83205,341.65891 c 0.11245,0.46025 -0.46536,0.80799 -1.20176,0.80799 -1.06368,0 -1.93814,-0.62389 -2.58248,-1.70802 l -0.32729,1.24266 c -0.0716,0.23524 -0.25058,0.34774 -0.4807,0.34774 h -0.53184 c -0.25058,0 -0.48582,-0.1841 -0.48582,-0.46024 v -10.19189 c 0,-0.25569 0.23524,-0.46025 0.48582,-0.46025 h 0.87447 c 0.25569,0 0.48581,0.20456 0.48581,0.46025 v 6.01899 c 0,2.00463 0.90004,2.83818 1.56995,2.83818 0.43979,0 0.96652,-0.16364 1.28868,-0.2608 0.39378,-0.11251 0.59833,0.0972 0.66992,0.41933 l 0.23524,0.94606"
   id="path1118" /><path
   inkscape:connector-curvature="0"
   style="fill:#eb1142;fill-opacity:1;fill-rule:nonzero;stroke:none;stroke-width:1.30914366"
   d="m 184.51255,331.69715 v 10.19189 c 0,0.27614 -0.23524,0.46024 -0.4807,0.46024 h -0.87958 c -0.25569,0 -0.48581,-0.1841 -0.48581,-0.46024 v -5.60477 c 0,-2.44442 -1.15062,-3.62061 -2.79217,-3.62061 -0.87447,0 -1.40119,0.48582 -1.40119,1.61598 v 7.6094 c 0,0.27614 -0.23012,0.46024 -0.49093,0.46024 h -0.86935 c -0.25568,0 -0.48582,-0.1841 -0.48582,-0.46024 v -7.83952 c 0,-1.93815 1.05858,-2.93024 2.74102,-2.93024 2.03021,0 2.79217,1.08414 3.36492,1.70803 l 0.30172,-1.20176 c 0.0665,-0.25057 0.23012,-0.38865 0.46535,-0.38865 h 0.53184 c 0.24546,0 0.4807,0.20456 0.4807,0.46025"
   id="path1120" /><path
   inkscape:connector-curvature="0"
   style="fill:#eb1142;fill-opacity:1;fill-rule:nonzero;stroke:none;stroke-width:1.30914366"
   d="m 201.27573,331.69715 v 8.39181 c 0,1.95861 -1.49835,2.37794 -2.51602,2.37794 -1.19663,0 -2.18872,-0.57786 -3.13478,-1.70802 -0.20966,1.05856 -1.15061,1.70802 -2.37282,1.70802 -1.22733,0 -2.28589,-0.83356 -2.93023,-1.5904 l -0.25569,1.10459 c -0.0716,0.27614 -0.20968,0.36819 -0.52672,0.36819 h -0.50628 c -0.2557,0 -0.48582,-0.1841 -0.48582,-0.46024 v -10.19189 c 0,-0.25569 0.23012,-0.46025 0.48582,-0.46025 h 0.86935 c 0.26081,0 0.48581,0.20456 0.48581,0.46025 v 6.36162 c 0,1.59552 1.15574,2.79727 2.51602,2.79727 0.71593,0 1.08413,-0.37331 1.08413,-1.08925 v -8.06964 c 0,-0.25569 0.23012,-0.46025 0.48582,-0.46025 h 0.87447 c 0.25057,0 0.48069,0.20456 0.48069,0.46025 v 6.36162 c 0,1.59552 1.18131,2.79727 2.54159,2.79727 0.71082,0 1.05856,-0.37331 1.05856,-1.08925 v -8.06964 c 0,-0.25569 0.23012,-0.46025 0.48582,-0.46025 h 0.87957 c 0.25059,0 0.48071,0.20456 0.48071,0.46025"
   id="path1122" /><path
   inkscape:connector-curvature="0"
   style="fill:#eb1142;fill-opacity:1;fill-rule:nonzero;stroke:none;stroke-width:1.30914366"
   d="m 46.740515,331.19088 h -0.89492 c -0.2608,0 -0.49604,0.20967 -0.49604,0.47047 v 7.04176 h -5.95763 v -7.04176 c 0,-0.2608 -0.23524,-0.47047 -0.49093,-0.47047 h -0.89492 c -0.2608,0 -0.50116,0.20967 -0.50116,0.47047 v 14.83526 c 0,0.28126 0.24036,0.47047 0.50116,0.47047 h 0.89492 c 0.25569,0 0.49093,-0.18921 0.49093,-0.47047 v -6.0957 h 5.95763 v 6.0957 c 0,0.28126 0.23524,0.47047 0.49604,0.47047 h 0.89492 c 0.26081,0 0.49605,-0.18921 0.49605,-0.47047 v -14.83526 c 0,-0.2608 -0.23524,-0.47047 -0.49605,-0.47047"
   id="path1124" /><path
   inkscape:connector-curvature="0"
   style="fill:#eb1142;fill-opacity:1;fill-rule:nonzero;stroke:none;stroke-width:1.30914366"
   d="m 54.912435,341.15264 c -0.7773,0 -2.0711,-0.45001 -2.35748,-3.2524 h 4.55132 c -0.0511,1.58018 -0.63923,3.2524 -2.19384,3.2524 m 3.65129,-4.76098 h -6.00877 c 0.0972,-2.37283 0.92049,-3.67174 3.04274,-3.67174 0.89492,0 1.53415,0.16875 2.23475,0.37842 0.32729,0.0921 0.5165,-0.0716 0.61366,-0.30683 l 0.20967,-0.58809 c 0.0921,-0.26081 -0.0256,-0.49604 -0.30683,-0.61366 -0.63412,-0.28126 -1.39097,-0.5165 -2.72568,-0.5165 -3.25241,0 -5.02179,2.05065 -5.02179,5.86558 0,3.55412 1.74382,5.72239 4.26494,5.72239 2.16827,0 4.16778,-1.31937 4.16778,-5.76842 0,-0.2608 -0.20967,-0.50115 -0.47047,-0.50115"
   id="path1126" /><path
   inkscape:connector-curvature="0"
   style="fill:#eb1142;fill-opacity:1;fill-rule:nonzero;stroke:none;stroke-width:1.30914366"
   d="m 65.109445,331.33407 c -0.404,-0.14319 -0.8489,-0.26081 -1.39097,-0.26081 -1.48301,0 -2.1427,0.70571 -2.1427,1.99951 v 14.31876 c 0,0.28638 0.23524,0.47559 0.49093,0.47559 h 0.85401 c 0.25569,0 0.49093,-0.18921 0.49093,-0.47559 v -13.84317 c 0,-0.58809 0.0665,-0.92049 0.58809,-0.92049 0.21478,0 0.47048,0.0665 0.75174,0.13807 0.28637,0.0716 0.45002,0 0.52161,-0.30172 l 0.13807,-0.63923 c 0.0511,-0.2608 -0.046,-0.39887 -0.30171,-0.49092"
   id="path1128" /><path
   inkscape:connector-curvature="0"
   style="fill:#eb1142;fill-opacity:1;fill-rule:nonzero;stroke:none;stroke-width:1.30914366"
   d="m 80.041855,331.19088 h -0.89492 c -0.2608,0 -0.49604,0.20967 -0.49604,0.47047 v 8.2384 c 0,0.7364 -0.35285,1.10971 -1.08925,1.10971 -1.38585,0 -2.58249,-1.22221 -2.58249,-2.84841 v -6.4997 c 0,-0.2608 -0.23523,-0.47047 -0.50115,-0.47047 h -0.89493 c -0.25569,0 -0.49092,0.20967 -0.49092,0.47047 v 8.2384 c 0,0.7364 -0.37843,1.10971 -1.10971,1.10971 -1.38585,0 -2.56203,-1.22221 -2.56203,-2.84841 v -6.4997 c 0,-0.2608 -0.24036,-0.47047 -0.49605,-0.47047 h -0.89492 c -0.26081,0 -0.49604,0.20967 -0.49604,0.47047 v 10.40667 c 0,0.28638 0.23523,0.47559 0.49604,0.47559 h 0.5165 c 0.32728,0 0.47047,-0.0972 0.54207,-0.37843 l 0.2608,-1.13016 c 0.65969,0.77731 1.73871,1.62621 2.98649,1.62621 1.24777,0 2.21429,-0.65969 2.42907,-1.74382 0.96141,1.15061 1.97906,1.74382 3.20127,1.74382 1.03299,0 2.56714,-0.42445 2.56714,-2.42908 v -8.5708 c 0,-0.2608 -0.23523,-0.47047 -0.49093,-0.47047"
   id="path1130" /><path
   inkscape:connector-curvature="0"
   style="fill:#eb1142;fill-opacity:1;fill-rule:nonzero;stroke:none;stroke-width:1.30914366"
   d="m 91.670735,331.19088 h -0.84378 c -0.2608,0 -0.49604,0.20967 -0.49604,0.47047 v 7.62985 c 0,1.24778 -0.47048,1.76939 -1.50347,1.76939 -1.53416,0 -2.78193,-1.29891 -2.78193,-2.92511 v -6.47413 c 0,-0.2608 -0.24036,-0.47047 -0.49605,-0.47047 h -0.84889 c -0.26081,0 -0.49604,0.20967 -0.49604,0.47047 v 15.73018 c 0,0.28638 0.23523,0.47559 0.49604,0.47559 h 0.84889 c 0.25569,0 0.49605,-0.18921 0.49605,-0.47559 v -6.33094 c 1.01254,1.13016 2.02508,1.60064 3.22683,1.60064 1.76428,0 2.89443,-1.1813 2.89443,-2.94558 v -8.0543 c 0,-0.2608 -0.23523,-0.47047 -0.49604,-0.47047"
   id="path1132" /><path
   inkscape:connector-curvature="0"
   style="fill:#eb1142;fill-opacity:1;fill-rule:nonzero;stroke:none;stroke-width:1.30914366"
   d="m 99.469345,341.08105 c -1.6262,0 -2.52624,-1.38585 -2.52624,-4.21381 0,-2.89443 0.90004,-4.23937 2.52624,-4.23937 1.626215,0 2.521135,1.34494 2.521135,4.23937 0,2.82796 -0.89492,4.21381 -2.521135,4.21381 m 0.0461,-10.00779 c -2.7359,0 -4.52063,2.16315 -4.52063,5.79398 0,3.60526 1.78473,5.79399 4.52063,5.79399 2.730805,0 4.474625,-2.18873 4.474625,-5.79399 0,-3.63083 -1.74382,-5.79398 -4.474625,-5.79398"
   id="path1134" /><path
   inkscape:connector-curvature="0"
   style="fill:#eb1142;fill-opacity:1;fill-rule:nonzero;stroke:none;stroke-width:1.30914366"
   d="m 110.35161,331.33407 c -0.40399,-0.14319 -0.85401,-0.26081 -1.39608,-0.26081 -1.4779,0 -2.13759,0.70571 -2.13759,1.99951 v 14.31876 c 0,0.28638 0.23013,0.47559 0.49093,0.47559 h 0.8489 c 0.25569,0 0.49605,-0.18921 0.49605,-0.47559 v -13.84317 c 0,-0.58809 0.0665,-0.92049 0.58809,-0.92049 0.20967,0 0.47047,0.0665 0.75173,0.13807 0.28126,0.0716 0.44491,0 0.52162,-0.30172 l 0.13806,-0.63923 c 0.0461,-0.2608 -0.046,-0.39887 -0.30171,-0.49092"
   id="path1136" /><path
   inkscape:connector-curvature="0"
   style="fill:#eb1142;fill-opacity:1;fill-rule:nonzero;stroke:none;stroke-width:1.30914366"
   d="m 116.65698,331.2369 c -0.32729,-0.092 -0.79776,-0.16364 -1.29381,-0.16364 -1.60062,0 -2.35747,0.73128 -2.35747,2.23475 v 7.72701 h -1.2887 c -0.28637,0 -0.47558,0.23524 -0.47558,0.49093 v 0.52162 c 0,0.2608 0.18921,0.49604 0.47558,0.49604 h 1.2887 v 2.37793 c 0,0.2557 0.14318,0.44491 0.35797,0.5165 l 0.86935,0.30683 c 0.28126,0.0972 0.60854,0.11762 0.60854,-0.2608 v -2.94046 h 1.31937 c 0.26081,0 0.47048,-0.23524 0.47048,-0.49604 v -0.52162 c 0,-0.25569 -0.20967,-0.49093 -0.47048,-0.49093 h -1.31937 v -7.48666 c 0,-0.63923 0.26081,-0.92049 0.8489,-0.92049 0.18921,0 0.49604,0.046 0.73128,0.092 0.23524,0.046 0.45002,-0.11761 0.49604,-0.37331 l 0.0921,-0.49604 c 0.046,-0.28638 -0.0204,-0.5165 -0.35286,-0.61366"
   id="path1138" /><path
   inkscape:connector-curvature="0"
   style="fill:#eb1142;fill-opacity:1;fill-rule:nonzero;stroke:none;stroke-width:1.30914366"
   d="m 125.01811,331.19088 h -6.21332 c -0.3324,0 -0.52161,0.28126 -0.52161,0.70571 v 0.54207 c 0,0.20966 0.092,0.39887 0.18921,0.56252 l 4.54621,7.32302 c 0.18921,0.31195 0.34774,0.57275 0.5165,0.73639 -0.21479,-0.0511 -0.54207,-0.0511 -0.68015,-0.0511 h -3.7689 c -0.28126,0 -0.47559,0.24035 -0.47559,0.49604 v 0.54207 c 0,0.2608 0.19433,0.49604 0.47559,0.49604 h 5.81444 c 0.26081,0 0.47047,-0.23524 0.47047,-0.49604 v -0.73128 c 0,-0.23524 -0.046,-0.37331 -0.16875,-0.56252 l -4.32631,-7.02131 c -0.21479,-0.34774 -0.49605,-0.77219 -0.68526,-1.01254 0.23524,0.0256 0.61366,0.046 0.87447,0.046 h 3.953 c 0.26081,0 0.47047,-0.16364 0.47047,-0.41934 v -0.65968 c 0,-0.26081 -0.20966,-0.49604 -0.47047,-0.49604"
   id="path1140" /><path
   inkscape:connector-curvature="0"
   style="fill:#eb1142;fill-opacity:1;fill-rule:nonzero;stroke:none;stroke-width:1.30914366"
   d="m 224.75849,331.69715 v 8.39181 c 0,1.95861 -1.49835,2.37794 -2.51089,2.37794 -1.20176,0 -2.19384,-0.57786 -3.13991,-1.70802 -0.20455,1.05856 -1.1506,1.70802 -2.3677,1.70802 -1.23244,0 -2.28588,-0.83356 -2.93535,-1.5904 l -0.25057,1.10459 c -0.0716,0.27614 -0.20967,0.36819 -0.53184,0.36819 h -0.50627 c -0.2557,0 -0.48582,-0.1841 -0.48582,-0.46024 v -10.19189 c 0,-0.25569 0.23012,-0.46025 0.48582,-0.46025 h 0.87447 c 0.25057,0 0.48581,0.20456 0.48581,0.46025 v 6.36162 c 0,1.59552 1.15062,2.79727 2.5109,2.79727 0.71593,0 1.08412,-0.37331 1.08412,-1.08925 v -8.06964 c 0,-0.25569 0.23524,-0.46025 0.48583,-0.46025 h 0.87447 c 0.25568,0 0.48581,0.20456 0.48581,0.46025 v 6.36162 c 0,1.59552 1.17106,2.79727 2.53646,2.79727 0.71083,0 1.05856,-0.37331 1.05856,-1.08925 v -8.06964 c 0,-0.25569 0.23524,-0.46025 0.48583,-0.46025 h 0.86935 c 0.2608,0 0.49092,0.20456 0.49092,0.46025"
   id="path1142" /><path
   inkscape:connector-curvature="0"
   style="fill:#eb1142;fill-opacity:1;fill-rule:nonzero;stroke:none;stroke-width:1.30914366"
   d="m 248.32308,331.69715 v 7.88554 c 0,1.72848 -1.10459,2.88421 -2.83818,2.88421 -1.19153,0 -2.18362,-0.46536 -3.18082,-1.61086 l -0.25569,1.12505 c -0.0665,0.27614 -0.20455,0.36819 -0.52672,0.36819 h -0.50627 c -0.25569,0 -0.48582,-0.1841 -0.48582,-0.46024 v -10.19189 c 0,-0.25569 0.23013,-0.46025 0.48582,-0.46025 h 0.87447 c 0.25057,0 0.48581,0.20456 0.48581,0.46025 v 6.34116 c 0,1.59041 1.17619,2.86376 2.67454,2.86376 1.01765,0 1.42676,-0.51139 1.42676,-1.7336 v -7.47132 c 0,-0.25569 0.23524,-0.46025 0.48582,-0.46025 h 0.87447 c 0.25569,0 0.48581,0.20456 0.48581,0.46025"
   id="path1144" /><path
   inkscape:connector-curvature="0"
   style="fill:#eb1142;fill-opacity:1;fill-rule:nonzero;stroke:none;stroke-width:1.30914366"
   d="m 258.50986,331.9733 -0.15853,0.71593 c -0.0461,0.23013 -0.2557,0.43468 -0.57787,0.34263 -0.43467,-0.11251 -0.99208,-0.20455 -1.61598,-0.20455 -1.74892,0 -2.64896,1.33471 -2.64896,4.06039 0,2.48533 1.01765,3.9888 2.44441,3.9888 0.64435,0 1.20175,-0.18922 1.56484,-0.32218 0.34774,-0.13807 0.51138,0.046 0.57786,0.27615 l 0.23524,0.6648 c 0.092,0.25569 -0.0512,0.43979 -0.34774,0.57786 -0.41934,0.1841 -1.17618,0.39377 -1.96371,0.39377 -2.55693,0 -4.47461,-2.30634 -4.47461,-5.5792 0,-3.71265 1.80007,-5.76842 4.50018,-5.76842 0.78241,0 1.45232,0.0716 2.09667,0.27615 0.30172,0.092 0.41933,0.34774 0.3682,0.57787"
   id="path1146" /><path
   inkscape:connector-curvature="0"
   style="fill:#eb1142;fill-opacity:1;fill-rule:nonzero;stroke:none;stroke-width:1.30914366"
   d="m 268.95744,331.69715 v 7.88554 c 0,1.72848 -1.10971,2.88421 -2.83819,2.88421 -1.18129,0 -2.16827,-0.46536 -3.16035,-1.56483 v 6.19797 c 0,0.27615 -0.23012,0.46025 -0.48582,0.46025 h -0.82844 c -0.25569,0 -0.48581,-0.1841 -0.48581,-0.46025 v -15.40289 c 0,-0.25569 0.23012,-0.46025 0.48581,-0.46025 h 0.82844 c 0.2557,0 0.48582,0.20456 0.48582,0.46025 v 6.34116 c 0,1.59041 1.22221,2.86376 2.72056,2.86376 1.01254,0 1.4779,-0.51139 1.4779,-1.7336 v -7.47132 c 0,-0.25569 0.22501,-0.46025 0.48582,-0.46025 h 0.82843 c 0.25059,0 0.48583,0.20456 0.48583,0.46025"
   id="path1148" /><path
   inkscape:connector-curvature="0"
   style="fill:#eb1142;fill-opacity:1;fill-rule:nonzero;stroke:none;stroke-width:1.30914366"
   d="m 278.56634,337.82864 h -4.44904 c 0.27615,2.71034 1.54438,3.1399 2.30634,3.1399 1.52394,0 2.09669,-1.61597 2.1427,-3.1399 m 1.88702,-1.00231 c 0,4.33143 -1.95861,5.63546 -4.08085,5.63546 -2.46487,0 -4.16778,-2.13248 -4.16778,-5.58943 0,-3.74845 1.72847,-5.75308 4.90929,-5.75308 1.31425,0 2.05064,0.23013 2.67454,0.50627 0.28126,0.11762 0.39376,0.34775 0.3017,0.59832 l -0.20965,0.57787 c -0.092,0.23012 -0.27616,0.39376 -0.59832,0.2966 -0.69038,-0.20455 -1.31427,-0.3682 -2.19384,-0.3682 -2.07112,0 -2.87909,1.27335 -2.97115,3.60015 h 5.88092 c 0.25058,0 0.45514,0.23524 0.45514,0.49604"
   id="path1150" /><path
   inkscape:connector-curvature="0"
   style="fill:#eb1142;fill-opacity:1;fill-rule:nonzero;stroke:none;stroke-width:1.30914366"
   d="m 291.61687,331.69715 v 7.88554 c 0,1.72848 -1.1097,2.88421 -2.84329,2.88421 -1.19665,0 -2.18361,-0.46536 -3.18081,-1.61086 l -0.25059,1.12505 c -0.0665,0.27614 -0.20966,0.36819 -0.53184,0.36819 h -0.50627 c -0.25569,0 -0.48581,-0.1841 -0.48581,-0.46024 v -10.19189 c 0,-0.25569 0.23012,-0.46025 0.48581,-0.46025 h 0.87447 c 0.2557,0 0.48582,0.20456 0.48582,0.46025 v 6.34116 c 0,1.59041 1.17618,2.86376 2.67454,2.86376 1.01254,0 1.43188,-0.51139 1.43188,-1.7336 v -7.47132 c 0,-0.25569 0.23012,-0.46025 0.48069,-0.46025 h 0.87959 c 0.25057,0 0.48581,0.20456 0.48581,0.46025"
   id="path1152" /><path
   inkscape:connector-curvature="0"
   style="fill:#eb1142;fill-opacity:1;fill-rule:nonzero;stroke:none;stroke-width:1.30914366"
   d="m 231.5599,346.06193 c 0,0.24547 -0.20455,0.40911 -0.42955,0.40911 h -0.98186 c -0.23012,0 -0.4398,-0.16364 -0.4398,-0.40911 v -1.03299 c 0,-0.22501 0.20968,-0.40911 0.4398,-0.40911 h 0.98186 c 0.225,0 0.42955,0.1841 0.42955,0.40911 v 1.03299"
   id="path1154" /><path
   inkscape:connector-curvature="0"
   style="fill:#eb1142;fill-opacity:1;fill-rule:nonzero;stroke:none;stroke-width:1.30914366"
   d="m 235.5129,346.06193 c 0,0.24547 -0.20966,0.40911 -0.43467,0.40911 h -0.98697 c -0.22501,0 -0.42957,-0.16364 -0.42957,-0.40911 v -1.03299 c 0,-0.22501 0.20456,-0.40911 0.42957,-0.40911 h 0.98697 c 0.22501,0 0.43467,0.1841 0.43467,0.40911 v 1.03299"
   id="path1156" /><path
   inkscape:connector-curvature="0"
   style="fill:#eb1142;fill-opacity:1;fill-rule:nonzero;stroke:none;stroke-width:1.30914366"
   d="m 236.10611,342.34928 h -0.87958 c -0.25057,0 -0.4807,-0.1841 -0.4807,-0.46024 v -5.60477 c 0,-2.44442 -1.15062,-3.62061 -2.78705,-3.62061 -0.87958,0 -1.41142,0.48582 -1.41142,1.61598 v 7.56849 c 0,0.27614 -0.23012,0.45513 -0.47559,0.46536 -0.0105,0 -2.42396,-0.14831 -2.42396,-0.14831 -0.225,-0.0409 -0.39376,-0.23012 -0.39376,-0.46536 v -0.37842 c 0,-0.31706 0.092,-0.45513 0.3682,-0.52673 l 1.08412,-0.24546 v -6.49969 c 0,-1.93815 1.05346,-2.93024 2.74102,-2.93024 2.02509,0 2.79217,1.08414 3.36492,1.70803 l 0.30172,-1.20176 c 0.0665,-0.25057 0.23012,-0.38865 0.46024,-0.38865 h 0.53184 c 0.25057,0 0.48071,0.20456 0.48071,0.46025 v 10.19189 c 0,0.27614 -0.23014,0.46024 -0.48071,0.46024"
   id="path1158" /><path
   inkscape:connector-curvature="0"
   style="fill:#636161;fill-opacity:1;fill-rule:nonzero;stroke:none;stroke-width:1.30914366"
   d="m 324.47842,315.28683 v 4.84281 c 0,1.06368 -0.68014,1.7745 -1.74382,1.7745 -0.72105,0 -1.32959,-0.28638 -1.93815,-0.96652 v 3.80982 c 0,0.16875 -0.14318,0.28126 -0.3017,0.28126 h -0.50628 c -0.15341,0 -0.29661,-0.11251 -0.29661,-0.28126 v -9.46061 c 0,-0.15342 0.1432,-0.28126 0.29661,-0.28126 h 0.50628 c 0.15852,0 0.3017,0.12785 0.3017,0.28126 v 3.89675 c 0,0.97674 0.75174,1.75404 1.66712,1.75404 0.62388,0 0.91026,-0.31194 0.91026,-1.06368 v -4.58711 c 0,-0.15342 0.13807,-0.28126 0.29661,-0.28126 h 0.50627 c 0.15853,0 0.30171,0.12785 0.30171,0.28126 m -6.51503,0.1125 -0.0563,0.30172 c -0.0255,0.15342 -0.1534,0.25569 -0.2966,0.22501 -0.14318,-0.0256 -0.32728,-0.0562 -0.43979,-0.0562 -0.35285,0 -0.51138,0.16875 -0.51138,0.55229 v 4.50018 h 0.79265 c 0.15852,0 0.28637,0.14319 0.28637,0.29661 v 0.31194 c 0,0.15853 -0.1279,0.2966 -0.28637,0.2966 h -0.79265 v 1.77451 c 0,0.22501 -0.19433,0.20966 -0.36819,0.15341 l -0.52162,-0.1841 c -0.1279,-0.0409 -0.21478,-0.15341 -0.21478,-0.31194 v -1.43188 h -0.7773 c -0.16876,0 -0.28127,-0.13807 -0.28127,-0.2966 v -0.31194 c 0,-0.15342 0.11245,-0.29661 0.28127,-0.29661 h 0.7773 v -4.64337 c 0,-0.90515 0.45513,-1.34494 1.41653,-1.34494 0.2966,0 0.58298,0.046 0.78243,0.10229 0.19943,0.0562 0.24034,0.19432 0.20966,0.36308 m -4.2445,-0.0102 -0.0869,0.38354 c -0.0408,0.18409 -0.1432,0.225 -0.31195,0.18409 -0.16876,-0.046 -0.32218,-0.0869 -0.45513,-0.0869 -0.30683,0 -0.35286,0.19944 -0.35286,0.5523 v 8.32533 c 0,0.16876 -0.13807,0.28127 -0.2966,0.28127 H 311.704 c -0.15342,0 -0.2966,-0.11251 -0.2966,-0.28127 v -8.60659 c 0,-0.78242 0.39889,-1.20687 1.28869,-1.20687 0.32728,0 0.59833,0.0716 0.83867,0.15853 0.15342,0.0562 0.20967,0.13807 0.18409,0.2966 m -6.00364,1.86656 c 0,-0.5523 -0.6239,-1.41654 -1.58529,-1.41654 -0.59832,0 -0.96652,0.34263 -0.96652,1.07902 0,1.1455 0.68014,1.37051 1.60063,1.41654 l 0.95118,0.0409 z m 1.27334,-1.96883 -0.0869,0.42444 c -0.0818,0.42957 -0.0818,0.80799 -0.0818,1.17619 v 2.50578 c 0,1.13527 -0.19945,2.5109 -2.33703,2.5109 -0.60854,0 -1.25801,-0.15853 -1.64665,-0.25569 -0.16365,-0.046 -0.22502,-0.16876 -0.19433,-0.34263 l 0.0869,-0.45513 c 0.0255,-0.16876 0.17898,-0.25058 0.35285,-0.20967 0.38354,0.0972 0.76196,0.24035 1.34493,0.24035 1.06368,0 1.2887,-0.43979 1.2887,-1.3296 v -0.3682 l -1.65689,-0.10228 c -0.97674,-0.0562 -2.05576,-0.56252 -2.05576,-2.16316 0,-1.26311 0.72617,-1.98417 1.81541,-1.98417 0.74662,0 1.48813,0.28638 1.93815,1.033 l 0.11246,-0.70571 c 0.0306,-0.1841 0.15853,-0.25569 0.31195,-0.25569 h 0.58298 c 0.15342,0 0.25057,0.11251 0.225,0.28126 m -7.61441,3.75355 h -2.73592 c 0.17388,1.68757 0.95118,1.95349 1.41654,1.95349 0.93584,0 1.28869,-1.00232 1.31938,-1.95349 m 1.15572,-0.60855 c 0,2.67454 -1.20175,3.4723 -2.50067,3.4723 -1.5188,0 -2.56715,-1.30403 -2.56715,-3.44162 0,-2.29611 1.06368,-3.52855 3.01717,-3.52855 0.80799,0 1.26312,0.14319 1.64154,0.31195 0.17387,0.0716 0.24547,0.21478 0.1841,0.36819 l -0.12791,0.35286 c -0.0563,0.14319 -0.16876,0.24035 -0.36309,0.1841 -0.42955,-0.12785 -0.81309,-0.22501 -1.35005,-0.22501 -1.27334,0 -1.76939,0.7773 -1.82564,2.20918 h 3.61038 c 0.15852,0 0.28126,0.14319 0.28126,0.2966 m -7.51735,-3.14501 v 8.92365 c 0,0.16876 -0.13808,0.28126 -0.2966,0.28126 h -0.53696 c -0.15341,0 -0.2966,-0.1125 -0.2966,-0.28126 v -3.67174 h -3.5848 v 3.67174 c 0,0.16876 -0.13808,0.28126 -0.2966,0.28126 h -0.53696 c -0.15342,0 -0.2966,-0.1125 -0.2966,-0.28126 v -8.92365 c 0,-0.15342 0.14318,-0.28126 0.2966,-0.28126 h 0.53696 c 0.15852,0 0.2966,0.12785 0.2966,0.28126 v 4.23426 h 3.5848 v -4.23426 c 0,-0.15342 0.14319,-0.28126 0.2966,-0.28126 h 0.53696 c 0.15852,0 0.2966,0.12785 0.2966,0.28126 m -11.0817,0.10228 -0.0869,0.38354 c -0.0408,0.1841 -0.14319,0.22501 -0.31195,0.1841 -0.16876,-0.046 -0.32728,-0.0869 -0.45001,-0.0869 -0.31195,0 -0.35798,0.19944 -0.35798,0.55229 v 8.32533 c 0,0.16875 -0.13807,0.28126 -0.2966,0.28126 h -0.51137 c -0.15342,0 -0.29662,-0.11251 -0.29662,-0.28126 v -8.6066 c 0,-0.78242 0.39889,-1.20687 1.2887,-1.20687 0.32728,0 0.59832,0.0716 0.83866,0.15853 0.15342,0.0563 0.20967,0.13808 0.18411,0.2966 m -6.00366,1.86656 c 0,-0.5523 -0.62388,-1.41654 -1.58529,-1.41654 -0.59832,0 -0.9614,0.34263 -0.9614,1.07902 0,1.1455 0.67502,1.37051 1.59552,1.41654 l 0.95117,0.0409 z m 1.27335,-1.96883 -0.0869,0.42445 c -0.0818,0.42956 -0.0818,0.80798 -0.0818,1.17618 v 2.50578 c 0,1.13528 -0.19943,2.5109 -2.33703,2.5109 -0.60854,0 -1.25799,-0.15853 -1.64153,-0.25569 -0.17387,-0.046 -0.23012,-0.16876 -0.19945,-0.34263 l 0.0869,-0.45513 c 0.0255,-0.16876 0.1841,-0.25058 0.35285,-0.20967 0.38354,0.0972 0.76196,0.24035 1.34495,0.24035 1.06368,0 1.28868,-0.43979 1.28868,-1.3296 v -0.36819 l -1.65688,-0.10229 c -0.97675,-0.0562 -2.05577,-0.56252 -2.05577,-2.16315 0,-1.26312 0.72617,-1.98417 1.81541,-1.98417 0.75174,0 1.48813,0.28637 1.93815,1.03299 l 0.11246,-0.70571 c 0.0306,-0.1841 0.15342,-0.25569 0.31194,-0.25569 h 0.57787 c 0.15852,0 0.25569,0.11251 0.23012,0.28126 m -6.11616,0.11251 -0.0563,0.30172 c -0.0306,0.15341 -0.15853,0.25569 -0.29661,0.225 -0.14317,-0.0256 -0.32728,-0.0562 -0.4398,-0.0562 -0.35284,0 -0.51138,0.16876 -0.51138,0.5523 v 4.50018 h 0.79266 c 0.15852,0 0.28638,0.14318 0.28638,0.2966 v 0.31194 c 0,0.15853 -0.12792,0.29661 -0.28638,0.29661 h -0.79266 v 1.7745 c 0,0.22501 -0.19944,0.20967 -0.36819,0.15341 l -0.52161,-0.18409 c -0.1279,-0.0409 -0.21478,-0.15342 -0.21478,-0.31195 v -1.43187 h -0.7773 c -0.16877,0 -0.28637,-0.13808 -0.28637,-0.29661 v -0.31194 c 0,-0.15342 0.11756,-0.2966 0.28637,-0.2966 h 0.7773 v -4.64337 c 0,-0.90515 0.45513,-1.34494 1.41654,-1.34494 0.29659,0 0.58297,0.046 0.7773,0.10228 0.19944,0.0562 0.24547,0.19433 0.21478,0.36308 m -5.21101,-0.1125 v 4.8428 c 0,1.06368 -0.68015,1.77451 -1.7387,1.77451 -0.74151,0 -1.34496,-0.28638 -1.95861,-0.99209 l -0.1534,0.69037 c -0.0409,0.16876 -0.12791,0.22501 -0.32729,0.22501 h -0.31194 c -0.15342,0 -0.29151,-0.11251 -0.29151,-0.28126 v -6.25934 c 0,-0.15342 0.13809,-0.28126 0.29151,-0.28126 h 0.54206 c 0.15342,0 0.29659,0.12785 0.29659,0.28126 v 3.89674 c 0,0.97675 0.72105,1.75405 1.64156,1.75405 0.62389,0 0.87957,-0.31194 0.87957,-1.06368 v -4.58711 c 0,-0.15342 0.13807,-0.28126 0.29659,-0.28126 h 0.53697 c 0.15342,0 0.2966,0.12785 0.2966,0.28126 m -8.15132,3.75356 h -2.73591 c 0.16875,1.68757 0.95118,1.95349 1.41654,1.95349 0.93582,0 1.28868,-1.00232 1.31937,-1.95349 m 1.15572,-0.60855 c 0,2.67454 -1.20174,3.4723 -2.50578,3.4723 -1.51369,0 -2.56203,-1.30403 -2.56203,-3.44162 0,-2.29611 1.06368,-3.52855 3.01718,-3.52855 0.80797,0 1.25799,0.14319 1.64152,0.31195 0.16877,0.0716 0.24036,0.21478 0.18411,0.36819 l -0.1279,0.35286 c -0.0563,0.14319 -0.16874,0.24035 -0.36819,0.1841 -0.42446,-0.12785 -0.80799,-0.22501 -1.34495,-0.22501 -1.27335,0 -1.76937,0.7773 -1.82563,2.20918 h 3.61036 c 0.15854,0 0.28127,0.14319 0.28127,0.2966 m -7.2054,-3.14501 v 5.15475 c 0,1.20687 -0.92051,1.46256 -1.54439,1.46256 -0.73128,0 -1.33983,-0.35797 -1.9228,-1.05345 -0.12791,0.65457 -0.70571,1.05345 -1.45745,1.05345 -0.75174,0 -1.40118,-0.51138 -1.80006,-0.98186 l -0.15342,0.68014 c -0.0461,0.16876 -0.12792,0.22501 -0.3273,0.22501 h -0.31194 c -0.15342,0 -0.29659,-0.11251 -0.29659,-0.28126 v -6.25934 c 0,-0.15342 0.14317,-0.28126 0.29659,-0.28126 h 0.53697 c 0.15852,0 0.3017,0.12785 0.3017,0.28126 v 3.91209 c 0,0.97674 0.70572,1.71313 1.53928,1.71313 0.43977,0 0.6648,-0.23012 0.6648,-0.66991 v -4.95531 c 0,-0.15342 0.14318,-0.28126 0.30171,-0.28126 h 0.53694 c 0.15342,0 0.29661,0.12785 0.29661,0.28126 v 3.91209 c 0,0.97674 0.72105,1.71313 1.55462,1.71313 0.43978,0 0.65457,-0.23012 0.65457,-0.66991 v -4.95531 c 0,-0.15342 0.13807,-0.28126 0.29659,-0.28126 h 0.53696 c 0.15853,0 0.29661,0.12785 0.29661,0.28126 m -10.47315,0 v 4.84281 c 0,1.06368 -0.68015,1.7745 -1.74383,1.7745 -0.73638,0 -1.34494,-0.28638 -1.95348,-0.99209 l -0.15342,0.69037 c -0.0461,0.16876 -0.1279,0.22501 -0.32728,0.22501 h -0.3119 c -0.15852,0 -0.29659,-0.11251 -0.29659,-0.28126 v -6.25934 c 0,-0.15342 0.13807,-0.28126 0.29659,-0.28126 h 0.53697 c 0.15852,0 0.2966,0.12785 0.2966,0.28126 v 3.89675 c 0,0.97674 0.72105,1.75404 1.64665,1.75404 0.61878,0 0.87447,-0.31194 0.87447,-1.06368 v -4.58711 c 0,-0.15342 0.14318,-0.28126 0.2966,-0.28126 h 0.54205 c 0.15342,0 0.29661,0.12785 0.29661,0.28126 m -8.14122,3.12967 c 0,-1.73871 -0.54208,-2.54669 -1.51882,-2.54669 -0.97674,0 -1.5137,0.80798 -1.5137,2.54669 0,1.70291 0.53696,2.53647 1.5137,2.53647 0.97674,0 1.51882,-0.83356 1.51882,-2.53647 m 1.20174,0 c 0,2.16827 -1.04835,3.48764 -2.68987,3.48764 -1.64156,0 -2.72057,-1.31937 -2.72057,-3.48764 0,-2.1785 1.07901,-3.48253 2.72057,-3.48253 1.64152,0 2.68987,1.30403 2.68987,3.48253 m -6.30024,2.98648 c 0.0716,0.28638 -0.28128,0.50116 -0.73641,0.50116 -0.64945,0 -1.19152,-0.38865 -1.58529,-1.05345 l -0.19944,0.76707 c -0.0408,0.14319 -0.1534,0.20967 -0.29661,0.20967 h -0.32727 c -0.15342,0 -0.29661,-0.11251 -0.29661,-0.28126 v -6.25934 c 0,-0.15342 0.14319,-0.28126 0.29661,-0.28126 h 0.54206 c 0.15342,0 0.29661,0.12785 0.29661,0.28126 v 3.69731 c 0,1.23243 0.55228,1.74382 0.96139,1.74382 0.27104,0 0.59322,-0.10228 0.79266,-0.15853 0.24033,-0.0716 0.36819,0.0563 0.4091,0.25569 z m -6.18777,-6.11615 v 6.25934 c 0,0.15853 -0.14317,0.28126 -0.29659,0.28126 h -0.51138 c -0.15342,0 -0.29661,-0.12273 -0.29661,-0.28126 v -6.25934 c 0,-0.15342 0.14319,-0.28126 0.29661,-0.28126 h 0.51138 c 0.15342,0 0.29659,0.12785 0.29659,0.28126 m 0.27104,8.99525 c 0,0.45001 -0.36821,0.81821 -0.82332,0.81821 -0.45515,0 -0.81822,-0.3682 -0.81822,-0.81821 0,-0.45514 0.36307,-0.82333 0.81822,-0.82333 0.45511,0 0.82332,0.36819 0.82332,0.82333 m -3.38535,-2.77682 c 0.0563,0.20967 -0.0716,0.32217 -0.22502,0.32217 h -0.63924 c -0.16875,0 -0.29659,-0.0818 -0.3375,-0.26592 l -1.16085,-4.74564 c -0.0869,-0.32218 -0.15852,-0.88981 -0.19944,-1.22733 -0.0306,0.35286 -0.0971,0.90515 -0.18409,1.22733 l -1.2171,4.7303 c -0.0409,0.1841 -0.1841,0.28126 -0.35285,0.28126 h -0.63924 c -0.15852,0 -0.28125,-0.12273 -0.20967,-0.36308 l 1.81032,-6.20309 c 0.0563,-0.19944 0.12789,-0.25569 0.29658,-0.25569 h 0.89493 c 0.17898,0 0.28127,0.10228 0.32217,0.25569 z m -7.10825,-6.21843 v 4.84281 c 0,1.06368 -0.68014,1.7745 -1.73871,1.7745 -0.73639,0 -1.34494,-0.28638 -1.95348,-0.99209 l -0.15855,0.69037 c -0.0408,0.16876 -0.12789,0.22501 -0.32727,0.22501 h -0.31195 c -0.15341,0 -0.29148,-0.11251 -0.29148,-0.28126 v -6.25934 c 0,-0.15342 0.13807,-0.28126 0.29148,-0.28126 h 0.54207 c 0.15342,0 0.29661,0.12785 0.29661,0.28126 v 3.89675 c 0,0.97674 0.72105,1.75404 1.64154,1.75404 0.62389,0 0.87958,-0.31194 0.87958,-1.06368 v -4.58711 c 0,-0.15342 0.14319,-0.28126 0.2966,-0.28126 h 0.53695 c 0.15854,0 0.29661,0.12785 0.29661,0.28126 m -7.11847,0 v 0.51138 c 0,0.16876 -0.14319,0.2966 -0.31194,0.2966 h -3.55413 v 3.41094 h 3.11434 c 0.16875,0 0.2966,0.13296 0.2966,0.31194 v 0.43979 c 0,0.15853 -0.12791,0.28126 -0.2966,0.28126 h -3.11434 v 2.89444 h 3.45184 c 0.18411,0 0.30171,0.13807 0.30171,0.31194 v 0.46536 c 0,0.16876 -0.14317,0.28126 -0.30171,0.28126 h -4.30074 c -0.15852,0 -0.29661,-0.1125 -0.29661,-0.28126 v -8.92365 c 0,-0.15342 0.13809,-0.28126 0.29661,-0.28126 h 4.41324 c 0.15854,0 0.30173,0.12785 0.30173,0.28126 m -10.12542,6.11615 c 0.0716,0.28638 -0.28125,0.50116 -0.7364,0.50116 -0.64945,0 -1.1915,-0.38865 -1.58527,-1.05345 l -0.19944,0.76707 c -0.0409,0.14319 -0.15342,0.20967 -0.29661,0.20967 h -0.32728 c -0.15342,0 -0.2966,-0.11251 -0.2966,-0.28126 v -6.25934 c 0,-0.15342 0.14318,-0.28126 0.2966,-0.28126 h 0.54205 c 0.15342,0 0.29663,0.12785 0.29663,0.28126 v 3.69731 c 0,1.23243 0.55228,1.74382 0.96139,1.74382 0.27102,0 0.5932,-0.10228 0.79264,-0.15853 0.24035,-0.0716 0.36821,0.0563 0.40911,0.25569 z m -6.79629,-2.98648 c 0,-1.73871 -0.53695,-2.54669 -1.51369,-2.54669 -0.97676,0 -1.5137,0.80798 -1.5137,2.54669 0,1.70291 0.53694,2.53647 1.5137,2.53647 0.97674,0 1.51369,-0.83356 1.51369,-2.53647 m 1.20687,0 c 0,2.16827 -1.04835,3.48764 -2.68987,3.48764 -1.64667,0 -2.72057,-1.31937 -2.72057,-3.48764 0,-2.1785 1.0739,-3.48253 2.72057,-3.48253 1.64152,0 2.68987,1.30403 2.68987,3.48253 m -6.29002,6.07524 c 0.0461,0.15342 0,0.31195 -0.15342,0.38354 -0.22502,0.0972 -0.72105,0.22501 -0.95117,0.22501 -0.88981,0 -1.53928,-0.43979 -1.53928,-1.61597 v -1.65689 h -0.7824 c -0.16877,0 -0.28127,-0.13807 -0.28127,-0.2966 v -0.31195 c 0,-0.15341 0.11244,-0.2966 0.28127,-0.2966 h 0.7824 v -5.63545 c 0,-0.15342 0.15342,-0.28126 0.29662,-0.28126 h 0.50627 c 0.15852,0 0.30169,0.12785 0.30169,0.28126 v 5.63545 h 1.08927 c 0.15341,0 0.28125,0.14319 0.28125,0.2966 v 0.31195 c 0,0.15853 -0.12789,0.2966 -0.28125,0.2966 h -1.08927 v 1.61598 c 0,0.51138 0.19434,0.6648 0.49605,0.6648 0.179,0 0.46536,-0.11251 0.60345,-0.15342 0.15852,-0.0409 0.28637,0.0153 0.32729,0.15342 z m -7.61451,-3.08876 c 0.0716,0.28638 -0.28638,0.50116 -0.7364,0.50116 -0.64945,0 -1.19154,-0.38865 -1.58529,-1.05345 l -0.19944,0.76707 c -0.0408,0.14319 -0.15342,0.20967 -0.29661,0.20967 h -0.32727 c -0.15342,0 -0.29661,-0.11251 -0.29661,-0.28126 v -6.25934 c 0,-0.15342 0.14319,-0.28126 0.29661,-0.28126 h 0.53694 c 0.15854,0 0.2966,0.12785 0.2966,0.28126 v 3.69731 c 0,1.23243 0.5523,1.74382 0.96652,1.74382 0.27104,0 0.59321,-0.10228 0.79263,-0.15853 0.24036,-0.0716 0.36821,0.0563 0.40911,0.25569 z m -6.81165,-2.36259 h -2.73074 c 0.16875,1.68757 0.94605,1.95349 1.41653,1.95349 0.93072,0 1.28868,-1.00232 1.31425,-1.95349 m 1.16085,-0.60855 c 0,2.67454 -1.20176,3.4723 -2.50578,3.4723 -1.5137,0 -2.56204,-1.30403 -2.56204,-3.44162 0,-2.29611 1.06368,-3.52855 3.01717,-3.52855 0.80798,0 1.258,0.14319 1.64154,0.31195 0.16876,0.0716 0.24036,0.21478 0.1841,0.36819 l -0.1279,0.35286 c -0.0563,0.14319 -0.16875,0.24035 -0.3682,0.1841 -0.42445,-0.12785 -0.80799,-0.22501 -1.34493,-0.22501 -1.27335,0 -1.76939,0.7773 -1.82564,2.20918 h 3.61037 c 0.15342,0 0.28125,0.14319 0.28125,0.2966 m -6.15706,-3.03251 -0.0563,0.30172 c -0.0306,0.15341 -0.15852,0.25569 -0.2966,0.22501 -0.14319,-0.0256 -0.32729,-0.0563 -0.43979,-0.0563 -0.35286,0 -0.51138,0.16876 -0.51138,0.5523 v 4.50018 h 0.79263 c 0.15854,0 0.28638,0.14319 0.28638,0.2966 v 0.31195 c 0,0.15853 -0.12791,0.2966 -0.28638,0.2966 h -0.79263 v 1.7745 c 0,0.22501 -0.19945,0.20967 -0.3682,0.15342 l -0.52161,-0.1841 c -0.12791,-0.0409 -0.21478,-0.15341 -0.21478,-0.31194 v -1.43188 h -0.77731 c -0.16876,0 -0.28126,-0.13807 -0.28126,-0.2966 v -0.31195 c 0,-0.15341 0.11245,-0.2966 0.28126,-0.2966 h 0.77731 v -4.64337 c 0,-0.90515 0.45512,-1.34494 1.41653,-1.34494 0.2966,0 0.58298,0.046 0.77731,0.10228 0.19943,0.0563 0.24546,0.19433 0.21477,0.36309 m -5.211,-0.11251 v 4.84281 c 0,1.06368 -0.68014,1.7745 -1.7387,1.7745 -0.7364,0 -1.34495,-0.28637 -1.95349,-0.99208 l -0.15854,0.69037 c -0.0408,0.16875 -0.1279,0.225 -0.32729,0.225 h -0.30682 c -0.15853,0 -0.30172,-0.1125 -0.30172,-0.28126 v -6.25934 c 0,-0.15342 0.14319,-0.28126 0.30172,-0.28126 h 0.53696 c 0.1534,0 0.2966,0.12785 0.2966,0.28126 v 3.89675 c 0,0.97674 0.72105,1.75405 1.64153,1.75405 0.6239,0 0.87959,-0.31195 0.87959,-1.06368 v -4.58712 c 0,-0.15342 0.13807,-0.28126 0.2966,-0.28126 h 0.53696 c 0.15342,0 0.2966,0.12785 0.2966,0.28126 m -8.15137,3.75356 h -2.73592 c 0.16876,1.68757 0.95119,1.95349 1.41655,1.95349 0.93583,0 1.28868,-1.00232 1.31937,-1.95349 m 1.15572,-0.60855 c 0,2.67454 -1.20175,3.4723 -2.50578,3.4723 -1.5137,0 -2.56203,-1.30403 -2.56203,-3.44162 0,-2.29611 1.06368,-3.52855 3.01716,-3.52855 0.80799,0 1.258,0.14319 1.64154,0.31195 0.16877,0.0716 0.24035,0.21478 0.18411,0.36819 l -0.1279,0.35286 c -0.0563,0.14319 -0.16877,0.24035 -0.3682,0.1841 -0.42445,-0.12785 -0.80799,-0.22501 -1.34494,-0.22501 -1.27335,0 -1.7694,0.7773 -1.82565,2.20918 h 3.61038 c 0.15341,0 0.28126,0.14319 0.28126,0.2966 m -6.38208,-2.77682 -0.25569,0.54207 c -0.0563,0.11251 -0.1841,0.1841 -0.35285,0.0972 -0.24036,-0.11251 -0.7773,-0.27104 -1.16084,-0.27104 -1.40119,0 -2.4342,1.11993 -2.4342,3.78425 0,2.5876 0.87447,3.69219 2.46488,3.69219 0.43468,0 0.76196,-0.11251 1.08925,-0.26592 0.16875,-0.0869 0.31194,-0.0307 0.38354,0.11251 l 0.225,0.43468 c 0.0869,0.15852 0.0255,0.32728 -0.11245,0.41422 -0.49604,0.2966 -1.07902,0.36819 -1.63131,0.36819 -2.16315,0 -3.66663,-1.75916 -3.66663,-4.74564 0,-3.11433 1.31937,-4.88372 3.58481,-4.88372 0.86424,0 1.3705,0.19944 1.7387,0.38354 0.11245,0.0562 0.19944,0.18409 0.1279,0.33751 m -11.01522,-0.3682 v 4.84281 c 0,1.06368 -0.68013,1.7745 -1.73871,1.7745 -0.72615,0 -1.32959,-0.28637 -1.94325,-0.96651 v 3.80981 c 0,0.16876 -0.13808,0.28126 -0.2966,0.28126 h -0.50627 c -0.15854,0 -0.30172,-0.1125 -0.30172,-0.28126 V 315.287 c 0,-0.15341 0.14318,-0.28126 0.30172,-0.28126 h 0.50627 c 0.15852,0 0.2966,0.12785 0.2966,0.28126 v 3.89675 c 0,0.97674 0.75173,1.75405 1.67222,1.75405 0.62389,0 0.90515,-0.31195 0.90515,-1.06368 V 315.287 c 0,-0.15341 0.14319,-0.28126 0.2966,-0.28126 h 0.5114 c 0.15852,0 0.29659,0.12785 0.29659,0.28126 m -6.55594,0.17387 -0.0972,0.43979 c -0.0307,0.13808 -0.15853,0.26592 -0.35285,0.20967 -0.27104,-0.0716 -0.60855,-0.12785 -0.99209,-0.12785 -1.07391,0 -1.6262,0.82333 -1.6262,2.49044 0,1.52904 0.62389,2.44953 1.49835,2.44953 0.39888,0 0.7364,-0.1125 0.96141,-0.19432 0.21478,-0.0869 0.31194,0.0256 0.35285,0.16875 l 0.14319,0.40911 c 0.0562,0.15853 -0.0256,0.27103 -0.20972,0.35286 -0.25569,0.1125 -0.72105,0.24546 -1.20687,0.24546 -1.56994,0 -2.74613,-1.41653 -2.74613,-3.43139 0,-2.27566 1.10459,-3.53878 2.76148,-3.53878 0.4807,0 0.89492,0.046 1.28868,0.17387 0.1841,0.0563 0.2557,0.20967 0.22501,0.35286 m -5.30816,5.94228 c 0.0716,0.28638 -0.28127,0.50116 -0.7364,0.50116 -0.64946,0 -1.18641,-0.38865 -1.58529,-1.05345 l -0.19944,0.76707 c -0.0409,0.14319 -0.15341,0.20967 -0.2966,0.20967 h -0.32729 c -0.15341,0 -0.2966,-0.11251 -0.2966,-0.28126 V 315.287 c 0,-0.15342 0.14319,-0.28126 0.2966,-0.28126 h 0.54207 c 0.15341,0 0.2966,0.12785 0.2966,0.28126 v 3.69731 c 0,1.23243 0.5523,1.74382 0.9614,1.74382 0.27104,0 0.59321,-0.10228 0.79265,-0.15853 0.24035,-0.0716 0.3682,0.0563 0.40911,0.25569 z m -7.1645,-4.14732 c 0,-0.5523 -0.62389,-1.41654 -1.58529,-1.41654 -0.59321,0 -0.9614,0.34263 -0.9614,1.07902 0,1.1455 0.68014,1.37051 1.60063,1.41654 l 0.94606,0.0409 z m 1.27846,-1.96883 -0.0869,0.42445 c -0.0869,0.42956 -0.0869,0.80798 -0.0869,1.17618 v 2.50578 c 0,1.13528 -0.19944,2.5109 -2.33702,2.5109 -0.60855,0 -1.258,-0.15853 -1.64155,-0.25569 -0.16875,-0.046 -0.225,-0.16876 -0.19944,-0.34263 l 0.0869,-0.45513 c 0.0307,-0.16876 0.1841,-0.25058 0.35286,-0.20967 0.38354,0.0972 0.76707,0.24035 1.34494,0.24035 1.06368,0 1.28869,-0.43979 1.28869,-1.3296 v -0.36819 l -1.65689,-0.10229 c -0.97674,-0.0562 -2.05065,-0.56252 -2.05065,-2.16315 0,-1.26312 0.72105,-1.98417 1.8103,-1.98417 0.75174,0 1.48813,0.28637 1.93815,1.03299 l 0.11761,-0.70571 c 0.0256,-0.1841 0.15342,-0.25569 0.31195,-0.25569 h 0.57786 c 0.15853,0 0.25569,0.11251 0.23012,0.28126 m -7.61961,3.75357 h -2.73077 c 0.16876,1.68757 0.94607,1.95349 1.41654,1.95349 0.93072,0 1.28869,-1.00232 1.31426,-1.95349 m 1.16084,-0.60855 c 0,2.67454 -1.20175,3.4723 -2.50579,3.4723 -1.51369,0 -2.56203,-1.30403 -2.56203,-3.44162 0,-2.29611 1.06368,-3.52855 3.01717,-3.52855 0.80798,0 1.25801,0.14319 1.64154,0.31195 0.16876,0.0716 0.24035,0.21478 0.1841,0.36819 l -0.12785,0.35286 c -0.0563,0.14319 -0.16876,0.24035 -0.3682,0.1841 -0.42444,-0.12785 -0.80799,-0.22501 -1.34494,-0.22501 -1.27334,0 -1.76939,0.7773 -1.82564,2.20918 h 3.61038 c 0.15341,0 0.28125,0.14319 0.28125,0.2966 m -6.78095,-1.58529 c 0,2.06599 -2.93023,2.1069 -2.93023,3.29843 0,0.51138 0.36819,0.83867 1.00743,0.83867 0.42444,0 0.86424,-0.14319 1.14549,-0.25569 0.15342,-0.0563 0.29661,-0.0307 0.35286,0.13807 l 0.12785,0.35285 c 0.0562,0.17388 0.0154,0.31195 -0.12785,0.38354 -0.36819,0.16876 -0.79265,0.30172 -1.45745,0.30172 -1.32959,0 -2.16315,-0.75174 -2.16315,-1.84098 0,-1.90235 2.89955,-1.91258 2.89955,-3.20127 0,-0.58298 -0.32729,-0.92049 -1.033,-0.92049 -0.56763,0 -1.11993,0.15341 -1.56995,0.37842 -0.15852,0.0716 -0.31194,0.0153 -0.36819,-0.17898 l -0.12786,-0.42956 c -0.0562,-0.16876 -0.0153,-0.29661 0.15342,-0.37843 0.51138,-0.25569 1.27335,-0.39888 1.8819,-0.39888 1.36028,0 2.20917,0.79265 2.20917,1.91258 m -6.888335,2.19384 h -2.73591 c 0.16876,1.68757 0.95118,1.95349 1.41654,1.95349 0.93583,0 1.28868,-1.00232 1.31937,-1.95349 m 1.16084,-0.60855 c 0,2.67454 -1.20686,3.4723 -2.50578,3.4723 -1.51881,0 -2.56715,-1.30403 -2.56715,-3.44162 0,-2.29611 1.06368,-3.52855 3.01716,-3.52855 0.80799,0 1.26312,0.14319 1.64155,0.31195 0.17387,0.0716 0.24035,0.21478 0.1841,0.36819 l -0.12786,0.35286 c -0.0563,0.14319 -0.16875,0.24035 -0.36819,0.1841 -0.42445,-0.12785 -0.80287,-0.22501 -1.34494,-0.22501 -1.27335,0 -1.76939,0.7773 -1.82564,2.20918 h 3.61037 c 0.15853,0 0.28638,0.14319 0.28638,0.2966 m -8.08499,3.5848 c 0,-1.04833 -0.69548,-1.65688 -1.8103,-1.65688 h -1.37561 v 3.09899 h 1.52903 c 1.08925,0 1.65688,-0.60855 1.65688,-1.44211 m 1.75405,-6.67356 c -0.56252,1.5904 -0.99208,2.66431 -1.11993,2.93535 -0.30683,0.66479 -0.87446,1.39607 -1.72336,1.53926 l 0.12785,0.0154 c 1.53927,0.16875 2.13759,1.31937 2.13759,2.35236 0,0.88981 -0.49605,2.30634 -2.81773,2.30634 h -2.39329 c -0.15341,0 -0.2966,-0.1125 -0.2966,-0.28126 v -8.92365 c 0,-0.15342 0.14319,-0.28126 0.2966,-0.28126 h 0.5523 c 0.15342,0 0.29661,0.12785 0.29661,0.28126 v 4.05016 h 0.75173 c 1.04833,0 1.48813,-0.61877 1.8103,-1.20175 0.40911,-0.72105 0.68014,-1.72848 1.07902,-2.96092 0.0409,-0.12785 0.13807,-0.16875 0.25058,-0.16875 h 0.85401 c 0.20967,0 0.26592,0.14319 0.19432,0.33751 m -12.28856,-0.0563 v 4.84281 c 0,1.06368 -0.68014,1.7745 -1.7387,1.7745 -0.7364,0 -1.35006,-0.28638 -1.95349,-0.99209 l -0.15854,0.69037 c -0.0409,0.16876 -0.12784,0.22501 -0.32728,0.22501 h -0.31194 c -0.15342,0 -0.2966,-0.11251 -0.2966,-0.28126 V 315.287 c 0,-0.15342 0.14318,-0.28126 0.2966,-0.28126 h 0.54206 c 0.15342,0 0.2966,0.12785 0.2966,0.28126 v 3.89675 c 0,0.97674 0.72106,1.75404 1.64155,1.75404 0.62389,0 0.87958,-0.31194 0.87958,-1.06368 V 315.287 c 0,-0.15342 0.13807,-0.28126 0.2966,-0.28126 h 0.53696 c 0.15342,0 0.2966,0.12785 0.2966,0.28126 m -8.50943,1.96883 c 0,-0.5523 -0.62389,-1.41654 -1.58529,-1.41654 -0.59321,0 -0.96141,0.34263 -0.96141,1.07902 0,1.1455 0.68014,1.37051 1.60064,1.41654 l 0.94606,0.0409 z m 1.27334,-1.96883 -0.0818,0.42445 c -0.0869,0.42956 -0.0869,0.80798 -0.0869,1.17618 v 2.50578 c 0,1.13528 -0.19944,2.5109 -2.33702,2.5109 -0.60855,0 -1.25801,-0.15853 -1.64155,-0.25569 -0.16875,-0.046 -0.225,-0.16876 -0.19944,-0.34263 l 0.0869,-0.45513 c 0.0307,-0.16876 0.1841,-0.25058 0.35286,-0.20967 0.38354,0.0972 0.76708,0.24035 1.34494,0.24035 1.06368,0 1.28869,-0.43979 1.28869,-1.3296 v -0.36819 l -1.65689,-0.10229 c -0.97674,-0.0562 -2.05065,-0.56252 -2.05065,-2.16315 0,-1.26312 0.72105,-1.98417 1.8103,-1.98417 0.75174,0 1.48813,0.28637 1.93815,1.03299 l 0.11761,-0.70571 c 0.0256,-0.1841 0.15342,-0.25569 0.31195,-0.25569 h 0.57786 c 0.15342,0 0.25569,0.11251 0.22501,0.28126 m -7.02131,0 v 5.15475 c 0,1.20687 -0.92049,1.46256 -1.54438,1.46256 -0.73128,0 -1.34494,-0.35797 -1.9228,-1.05345 -0.12785,0.65457 -0.71082,1.05345 -1.45745,1.05345 -0.75173,0 -1.40119,-0.51138 -1.80007,-0.98185 l -0.15341,0.68014 c -0.046,0.16875 -0.12785,0.22501 -0.32729,0.22501 h -0.31194 c -0.15342,0 -0.29661,-0.11251 -0.29661,-0.28127 v -6.25934 c 0,-0.15341 0.14319,-0.28126 0.29661,-0.28126 h 0.53695 c 0.15853,0 0.2966,0.12785 0.2966,0.28126 v 3.91209 c 0,0.97675 0.71083,1.71314 1.54438,1.71314 0.43979,0 0.6648,-0.23013 0.6648,-0.66992 v -4.95531 c 0,-0.15341 0.14319,-0.28126 0.29661,-0.28126 h 0.53695 c 0.15853,0 0.30172,0.12785 0.30172,0.28126 v 3.91209 c 0,0.97675 0.72105,1.71314 1.5546,1.71314 0.43979,0 0.65458,-0.23013 0.65458,-0.66992 v -4.95531 c 0,-0.15341 0.13807,-0.28126 0.2966,-0.28126 h 0.53695 c 0.15342,0 0.2966,0.12785 0.2966,0.28126 m -9.3839,6.11616 c 0.0665,0.28637 -0.28637,0.50115 -0.73639,0.50115 -0.65457,0 -1.19153,-0.38865 -1.5904,-1.05345 l -0.19433,0.76708 c -0.046,0.14319 -0.15852,0.20967 -0.2966,0.20967 h -0.32728 c -0.15853,0 -0.29661,-0.11251 -0.29661,-0.28126 V 315.287 c 0,-0.15342 0.13808,-0.28126 0.29661,-0.28126 h 0.53695 c 0.15341,0 0.2966,0.12785 0.2966,0.28126 v 3.69731 c 0,1.23243 0.5523,1.74382 0.9614,1.74382 0.27104,0 0.59832,-0.10228 0.79776,-0.15853 0.24035,-0.0716 0.36309,0.0563 0.40911,0.25569 z m -6.81163,-2.36259 h -2.7359 c 0.17387,1.68757 0.95117,1.95349 1.41653,1.95349 0.93583,0 1.28869,-1.00232 1.31937,-1.95349 m 1.16083,-0.60854 c 0,2.67454 -1.20686,3.4723 -2.50578,3.4723 -1.5137,0 -2.56204,-1.30403 -2.56204,-3.44162 0,-2.29611 1.05857,-3.52855 3.01206,-3.52855 0.80799,0 1.26312,0.14319 1.64666,0.31195 0.16875,0.0716 0.24035,0.21478 0.18409,0.36819 l -0.12785,0.35286 c -0.0563,0.14319 -0.16875,0.24035 -0.36819,0.1841 -0.42445,-0.12785 -0.80799,-0.22501 -1.34495,-0.22501 -1.27846,0 -1.7745,0.7773 -1.83075,2.20918 h 3.61549 c 0.15341,0 0.28126,0.14319 0.28126,0.2966 m -7.25143,-2.67454 v 4.40302 c 0,0.16876 -0.13807,0.28126 -0.2966,0.28126 h -2.33703 c -0.16876,0 -0.28126,-0.13807 -0.28126,-0.2966 v -0.50627 c 0,-0.15853 0.11251,-0.30172 0.28126,-0.30172 h 1.51881 v -3.18592 c -0.3682,-0.11251 -0.76707,-0.16876 -1.16084,-0.16876 -1.67223,0 -2.67965,1.04834 -2.67965,3.72288 0,2.56203 0.79775,3.7689 2.56714,3.7689 0.6648,0 1.2171,-0.1841 1.6978,-0.43979 0.13807,-0.0716 0.28126,0.0256 0.32729,0.12785 l 0.24035,0.52161 c 0.0562,0.14319 0.0256,0.2966 -0.14319,0.38354 -0.58298,0.2966 -1.34494,0.49604 -2.06599,0.49604 -2.49556,0 -3.85073,-1.75916 -3.85073,-4.77121 0,-3.25752 1.29892,-4.85815 3.66151,-4.85815 0.76708,0 1.61598,0.12785 2.1427,0.32728 0.2557,0.0972 0.37843,0.21478 0.37843,0.49605"
   id="path1160" /><path
   id="path1231"
   d="M 666.29173,111.15653 V 84.556968 h 6.86441 v 26.599562 h 31.74788 V 78.550608 h -6.00636 v 26.599572 h -6.8644 V 78.550608 h -6.00636 v 26.599572 h -6.86441 V 78.550608 h -18.87711 v 26.599572 h -6.00636 V 78.550608 h -6.00636 v 26.599572 h -6.00635 v 6.00635 z"
   inkscape:connector-curvature="0"
   style="fill:#3070b3;stroke-width:0.85805082" /><text
   y="-25.400375"
   x="704.5177"
   id="text973-3"
   style="font-variant:normal;font-weight:normal;font-size:18px;font-family:Carlito;-inkscape-font-specification:Carlito;writing-mode:lr-tb;fill:#8f8f8f;fill-opacity:1;fill-rule:nonzero;stroke:none;stroke-width:0.99999994"
   transform="scale(1,-1)"><tspan
     style="text-align:end;text-anchor:end;stroke-width:0.99999994"
     id="tspan971-5"
     sodipodi:role="line"
     y="-25.400375"
     x="704.5177">Helmholtz Zentrum München, Institute of Computational Biology</tspan><tspan
     style="text-align:end;text-anchor:end;stroke-width:0.99999994"
     sodipodi:role="line"
     y="-2.9003754"
     x="704.5177"
     id="tspan941">Technische Universität München, Department of Mathematics</tspan></text>




</g></svg>